<?xml version="1.0" encoding="UTF-8" standalone="no"?>
<!-- Created with Inkscape (http://www.inkscape.org/) -->

<svg
   xmlns:dc="http://purl.org/dc/elements/1.1/"
   xmlns:cc="http://creativecommons.org/ns#"
   xmlns:rdf="http://www.w3.org/1999/02/22-rdf-syntax-ns#"
   xmlns:svg="http://www.w3.org/2000/svg"
   xmlns="http://www.w3.org/2000/svg"
   xmlns:sodipodi="http://sodipodi.sourceforge.net/DTD/sodipodi-0.dtd"
   xmlns:inkscape="http://www.inkscape.org/namespaces/inkscape"
   width="3.1783104mm"
   height="0.81029367mm"
   viewBox="0 0 11.26173 2.8711193"
   id="svg4134"
   version="1.1"
   inkscape:version="0.91 r13725"
   sodipodi:docname="hatchShade.svg">
  <defs
     id="defs4136" />
  <sodipodi:namedview
     id="base"
     pagecolor="#ffffff"
     bordercolor="#666666"
     borderopacity="1.0"
     inkscape:pageopacity="0.0"
     inkscape:pageshadow="2"
     inkscape:zoom="90.509668"
     inkscape:cx="6.962857"
     inkscape:cy="0.54359579"
     inkscape:document-units="px"
     inkscape:current-layer="layer1"
     showgrid="false"
     fit-margin-top="0"
     fit-margin-left="0"
     fit-margin-right="0"
     fit-margin-bottom="0"
     inkscape:window-width="1920"
     inkscape:window-height="1018"
     inkscape:window-x="-8"
     inkscape:window-y="-8"
     inkscape:window-maximized="1" />
  <metadata
     id="metadata4139">
    <rdf:RDF>
      <cc:Work
         rdf:about="">
        <dc:format>image/svg+xml</dc:format>
        <dc:type
           rdf:resource="http://purl.org/dc/dcmitype/StillImage" />
        <dc:title />
      </cc:Work>
    </rdf:RDF>
  </metadata>
  <g
     inkscape:label="Layer 1"
     inkscape:groupmode="layer"
     id="layer1"
     transform="translate(-473.67141,-578.66986)">
    <path
       style="fill:#000000;fill-opacity:0.25116284"
       d="m 473.67141,581.49156 c 0.009,-0.0639 1.3039,-2.30826 1.43402,-2.46768 0.38323,-0.46953 1.09944,-0.4725 1.56546,-0.006 0.42963,0.42963 0.39439,0.87524 -0.14201,1.79578 l -0.42382,0.72732 -1.21683,0 c -0.66925,0 -1.23165,0.0551 -1.22787,0.0284 z m 5.58328,-0.16222 c 0.0753,-0.11614 0.34091,-0.57013 0.59026,-1.00887 0.63038,-1.10913 0.76998,-1.29559 1.09635,-1.46436 0.3856,-0.1994 0.83981,-0.10264 1.19757,0.25513 0.41968,0.41968 0.39235,0.85571 -0.10887,1.73665 l -0.39406,0.6926 -1.25906,0 -1.25907,0 z"
       id="path4805"
       inkscape:connector-curvature="0"
       sodipodi:nodetypes="sscscsssccssscccc" />
  </g>
</svg>
